<svg width="191" height="12" viewBox="0 0 191 12" fill="none" xmlns="http://www.w3.org/2000/svg">
<path d="M0.666667 6C0.666667 8.94552 3.05448 11.3333 6 11.3333C8.94552 11.3333 11.3333 8.94552 11.3333 6C11.3333 3.05448 8.94552 0.666667 6 0.666667C3.05448 0.666667 0.666667 3.05448 0.666667 6ZM179.667 6C179.667 8.94552 182.054 11.3333 185 11.3333C187.946 11.3333 190.333 8.94552 190.333 6C190.333 3.05448 187.946 0.666667 185 0.666667C182.054 0.666667 179.667 3.05448 179.667 6ZM6 7H185V5H6V7Z" fill="#4C4C4C"/>
</svg>
