<svg width="288" height="29" viewBox="0 0 288 29" fill="none" xmlns="http://www.w3.org/2000/svg">
<path d="M38.592 12.04H51.048V10.552H36.12V8.224H53.88V14.392H38.592V12.04ZM37.008 12.04H39.888C39.432 14.32 38.808 17.008 38.304 18.76L35.424 18.424C35.976 16.72 36.624 14.152 37.008 12.04ZM38.016 15.808H53.136V18.208H37.296L38.016 15.808ZM52.392 15.808H55.272C55.272 15.808 55.248 16.48 55.2 16.84C54.96 20.032 54.672 21.592 54.072 22.264C53.544 22.816 52.968 23.008 52.224 23.08C51.552 23.176 50.4 23.176 49.176 23.152C49.128 22.312 48.792 21.232 48.36 20.512C49.368 20.632 50.376 20.656 50.808 20.632C51.192 20.632 51.408 20.608 51.648 20.416C51.984 20.08 52.2 18.928 52.392 16.144V15.808ZM43.512 8.776H46.344V24.16H43.512V8.776ZM42.936 16.672L45.168 17.632C43.008 20.344 39.384 22.72 35.904 23.92C35.496 23.224 34.68 22.192 34.08 21.64C37.464 20.704 41.112 18.784 42.936 16.672ZM37.08 3.472H44.64V5.68H37.08V3.472ZM46.608 3.472H55.92V5.68H46.608V3.472ZM37.2 1.432L39.864 2.152C38.88 4.528 37.272 6.976 35.76 8.464C35.232 8.032 34.08 7.288 33.408 6.928C34.968 5.608 36.384 3.496 37.2 1.432ZM46.968 1.432L49.68 2.128C48.768 4.504 47.208 6.808 45.648 8.272C45.12 7.792 43.944 7.024 43.272 6.664C44.88 5.44 46.248 3.448 46.968 1.432ZM37.968 5.224L40.272 4.24C40.896 5.176 41.616 6.496 41.928 7.336L39.48 8.416C39.24 7.552 38.592 6.232 37.968 5.224ZM48.384 5.2L50.76 4.36C51.528 5.248 52.416 6.496 52.824 7.36L50.328 8.32C49.992 7.48 49.152 6.16 48.384 5.2ZM65.4943 19.36H68.8303V9.88L69.1903 8.248L68.0383 9.664L65.9023 11.128L64.5823 9.328L70.0543 4.912H71.8063V19.36H75.0703V22H65.4943V19.36ZM82.4715 19.696C83.4635 19.696 84.2155 19.432 84.7275 18.904C85.2555 18.376 85.5195 17.736 85.5195 16.984C85.5195 16.072 85.2475 15.4 84.7035 14.968C84.1595 14.536 83.3035 14.32 82.1355 14.32H80.4075V12.664L83.3115 8.704L84.6795 7.624L82.7835 7.84H78.7515V5.2H87.9195V6.904L84.5355 11.44L83.4795 12.088V12.208L84.4875 12.064C85.0475 12.112 85.5755 12.24 86.0715 12.448C86.5835 12.656 87.0235 12.96 87.3915 13.36C87.7755 13.744 88.0795 14.224 88.3035 14.8C88.5275 15.376 88.6395 16.04 88.6395 16.792C88.6395 17.736 88.4795 18.552 88.1595 19.24C87.8555 19.928 87.4235 20.504 86.8635 20.968C86.3195 21.432 85.6795 21.776 84.9435 22C84.2075 22.224 83.4155 22.336 82.5675 22.336C81.8635 22.336 81.1355 22.272 80.3835 22.144C79.6315 22.016 79.0235 21.832 78.5595 21.592L79.3995 19C79.8155 19.208 80.2715 19.376 80.7675 19.504C81.2795 19.632 81.8475 19.696 82.4715 19.696ZM99.471 2.728H102.375V9.832C102.375 14.008 101.991 20.296 99.447 24.232C98.895 23.776 97.623 23.032 96.879 22.744C99.303 19.072 99.471 13.648 99.471 9.832V2.728ZM101.271 2.728H117.951V9.856H101.271V7.216H115.047V5.344H101.271V2.728ZM106.599 12.856H114.927V15.184H106.599V12.856ZM106.599 17.224H114.927V19.552H106.599V17.224ZM104.463 20.824H116.943V23.344H104.463V20.824ZM109.335 10.408H111.927V18.544H109.335V10.408ZM103.143 11.728H105.831V24.16H103.143V11.728ZM115.647 11.728H118.383V24.16H115.647V11.728ZM121.887 17.464H142.887V19.744H121.887V17.464ZM126.135 13.36H136.359V15.4H126.135V13.36ZM130.935 16.36H133.767V21.496C133.767 22.792 133.503 23.44 132.495 23.8C131.535 24.16 130.191 24.184 128.367 24.184C128.223 23.416 127.839 22.408 127.479 21.76C128.631 21.808 130.071 21.784 130.431 21.784C130.815 21.76 130.935 21.688 130.935 21.4V16.36ZM135.687 13.36H136.383L136.983 13.216L138.591 14.68C137.007 15.952 134.871 17.32 132.951 18.256C132.639 17.824 131.991 17.128 131.655 16.792C133.095 16.072 134.871 14.728 135.687 13.84V13.36ZM121.863 10.264H142.935V15.208H140.079V12.352H124.599V15.208H121.863V10.264ZM123.255 2.68L126.615 3.352C126.567 3.544 126.375 3.664 125.991 3.736L126.423 11.176H123.759L123.255 2.68ZM138.927 2.416H141.663C141.519 5.368 141.279 9.016 141.015 11.296H138.255C138.567 8.944 138.831 5.296 138.927 2.416ZM135.543 2.416H139.983V4.216H135.543V2.416ZM128.103 1.744L129.447 3.28C128.127 3.928 126.303 4.432 125.031 4.744L123.879 3.256C125.151 2.968 126.999 2.224 128.103 1.744ZM124.767 5.032H129.279V6.808H124.767V5.032ZM124.839 7.648H129.327V9.424H124.839V7.648ZM135.639 5.032H139.695V6.808H135.639V5.032ZM135.567 7.648H139.623V9.424H135.567V7.648ZM133.191 1.768L135.039 2.32C133.959 3.784 132.159 5.152 130.527 6.016C130.215 5.656 129.471 5.032 129.015 4.72C130.671 4 132.279 2.944 133.191 1.768ZM129.615 3.016L130.911 1.936C132.327 2.608 134.103 3.736 134.991 4.576L133.623 5.776C132.783 4.96 131.031 3.784 129.615 3.016ZM133.287 5.8L135.183 6.352C134.079 7.912 132.207 9.352 130.527 10.24C130.191 9.904 129.447 9.256 128.991 8.944C130.695 8.176 132.375 7.048 133.287 5.8ZM129.687 7.12L131.007 6.016C132.447 6.736 134.295 7.912 135.231 8.776L133.791 10C132.951 9.136 131.151 7.912 129.687 7.12ZM153.063 3.232H167.463V5.32H153.063V3.232ZM156.279 1.648H158.823V6.256H156.279V1.648ZM161.535 1.648H164.127V6.232H161.535V1.648ZM162.783 8.392V9.832H164.463V8.392H162.783ZM160.695 6.64H166.647V11.584H160.695V6.64ZM156.063 8.392V9.832H157.671V8.392H156.063ZM153.975 6.64H159.855V11.584H153.975V6.64ZM156.063 16H166.263V17.824H156.063V16ZM156.063 18.688H166.263V20.536H156.063V18.688ZM155.919 21.4H167.343V23.44H155.919V21.4ZM159.639 14.224H162.231V22.912H159.639V14.224ZM157.215 13.36H167.055V15.136H157.215V24.16H154.575V15.976L157.167 13.36H157.215ZM160.359 11.368L163.071 11.824C162.495 12.928 161.895 14.032 161.463 14.776L159.471 14.272C159.807 13.432 160.167 12.208 160.359 11.368ZM155.823 11.08L158.223 11.776C157.167 14.152 155.439 16.6 153.783 18.136C153.399 17.656 152.487 16.744 151.935 16.312C153.495 15.04 154.983 13.048 155.823 11.08ZM145.431 6.592H153.135V9.256H145.431V6.592ZM148.215 1.624H150.807V24.16H148.215V1.624ZM148.191 8.416L149.727 8.944C149.079 12.712 147.783 17.368 146.151 19.816C145.887 19.072 145.287 17.992 144.879 17.32C146.343 15.232 147.663 11.464 148.191 8.416ZM150.663 9.616C151.167 10.24 153.015 13.096 153.423 13.768L152.031 15.784C151.527 14.44 150.159 11.776 149.559 10.72L150.663 9.616ZM182.799 4.336H185.583V10.312H182.799V4.336ZM179.967 13H182.463V21.88C182.463 22.96 182.247 23.512 181.503 23.824C180.759 24.136 179.727 24.16 178.287 24.16C178.191 23.56 177.879 22.72 177.591 22.12C178.407 22.168 179.343 22.168 179.607 22.168C179.895 22.144 179.967 22.072 179.967 21.808V13ZM186.927 1.6L189.447 2.224C188.823 3.16 188.223 3.976 187.719 4.576L185.751 3.976C186.159 3.28 186.687 2.296 186.927 1.6ZM179.463 2.32L181.479 1.6C182.031 2.272 182.631 3.232 182.871 3.88L180.735 4.648C180.543 4.024 179.991 3.04 179.463 2.32ZM187.119 12.976L188.775 11.824C189.663 12.424 190.719 13.36 191.223 14.056L189.495 15.328C189.039 14.608 188.007 13.648 187.119 12.976ZM176.823 18.688C178.791 18.52 181.599 18.28 184.407 17.968L184.455 20.032C181.863 20.344 179.199 20.656 177.087 20.896L176.823 18.688ZM183.039 11.68L184.527 13.36C182.583 13.888 179.919 14.224 177.735 14.344C177.663 13.888 177.399 13.144 177.183 12.664C179.223 12.472 181.623 12.136 183.039 11.68ZM177.759 3.832H190.887V5.752H177.759V3.832ZM178.527 6.664H190.167V8.44H178.527V6.664ZM177.015 9.424H191.391V11.488H177.015V9.424ZM176.967 15.184H191.367V17.272H176.967V15.184ZM184.479 11.968H186.879C186.807 18.352 187.863 22.048 189.447 22.048C189.831 22.048 190.047 21.424 190.143 20.08C190.599 20.536 191.295 20.872 191.799 21.112C191.463 23.416 190.695 24.28 189.207 24.28C185.607 24.28 184.599 19.072 184.479 11.968ZM188.607 17.536L190.551 18.496C189.039 20.848 186.375 22.792 183.879 23.872C183.591 23.44 182.967 22.744 182.511 22.36C184.863 21.4 187.311 19.672 188.607 17.536ZM170.079 8.992H176.463V11.152H170.079V8.992ZM170.223 2.368H176.391V4.552H170.223V2.368ZM170.079 12.256H176.463V14.44H170.079V12.256ZM169.071 5.608H177.063V7.888H169.071V5.608ZM171.399 15.592H176.415V22.84H171.399V20.584H174.111V17.848H171.399V15.592ZM170.007 15.592H172.263V23.848H170.007V15.592ZM197.055 7.432V8.584H200.463V7.432H197.055ZM197.055 4.48V5.608H200.463V4.48H197.055ZM194.511 2.56H203.127V10.528H194.511V2.56ZM193.383 11.896H204.207V14.008H193.383V11.896ZM204.111 2.632H215.175V4.648H204.111V2.632ZM197.871 12.568H200.271V22.216L197.871 20.824V12.568ZM199.119 15.952H203.775V18.016H199.119V15.952ZM208.743 3.112L211.359 3.688C210.783 5.032 210.159 6.472 209.655 7.408L207.615 6.88C208.047 5.8 208.503 4.24 208.743 3.112ZM207.423 10.84V11.968H211.791V10.84H207.423ZM207.423 13.792V14.944H211.791V13.792H207.423ZM207.423 7.864V8.992H211.791V7.864H207.423ZM204.855 5.92H214.455V16.912H204.855V5.92ZM206.799 17.08L209.175 17.8C208.143 19.168 206.439 20.536 204.951 21.352C204.543 20.896 203.631 20.056 203.103 19.672C204.543 19.048 205.983 18.064 206.799 17.08ZM194.487 14.944H196.791C196.671 18.616 196.311 22.144 194.487 24.304C194.151 23.704 193.383 22.792 192.807 22.36C194.175 20.68 194.415 17.848 194.487 14.944ZM196.407 16.96C197.751 20.992 200.751 21.4 205.647 21.424C207.255 21.424 213.879 21.424 215.847 21.328C215.463 21.88 215.055 22.984 214.911 23.704H205.647C199.695 23.704 196.407 22.888 194.703 17.464L196.407 16.96ZM210.207 17.944L212.175 16.912C213.471 17.752 214.959 19.048 215.703 19.96L213.639 21.184C212.895 20.224 211.407 18.832 210.207 17.944ZM223.959 3.88H238.791V5.752H223.959V3.88ZM224.751 6.64H238.023V8.464H224.751V6.64ZM223.287 9.424H239.487V11.392H223.287V9.424ZM223.071 15.16H239.679V17.104H223.071V15.16ZM229.863 4.504H232.671V10.312H229.863V4.504ZM230.055 11.608L231.471 13.264C229.311 13.864 226.239 14.2 223.719 14.32C223.623 13.84 223.383 13.096 223.167 12.64C225.567 12.448 228.399 12.112 230.055 11.608ZM226.551 12.88H229.071V21.76C229.071 22.888 228.855 23.44 228.087 23.752C227.343 24.088 226.311 24.112 224.871 24.112C224.775 23.488 224.463 22.624 224.175 22.024C224.991 22.072 225.903 22.072 226.191 22.048C226.479 22.048 226.551 21.976 226.551 21.712V12.88ZM222.927 18.64C225.159 18.472 228.423 18.136 231.615 17.848L231.663 19.816C228.639 20.152 225.471 20.488 223.119 20.728L222.927 18.64ZM231.999 11.896H234.495C234.543 17.44 235.887 21.832 237.471 21.832C237.855 21.832 238.023 21.424 238.095 20.2C238.599 20.68 239.319 21.088 239.919 21.28C239.559 23.608 238.887 24.208 237.303 24.208C233.871 24.184 232.191 18.808 231.999 11.896ZM236.703 17.224L238.911 17.944C237.183 20.464 234.279 22.576 231.471 23.872C231.135 23.392 230.367 22.456 229.887 22.024C232.599 20.992 235.287 19.288 236.703 17.224ZM226.023 2.392L228.303 1.6C228.903 2.296 229.599 3.304 229.911 4L227.487 4.888C227.223 4.216 226.599 3.16 226.023 2.392ZM234.735 12.88L236.415 11.68C237.351 12.304 238.527 13.216 239.103 13.888L237.327 15.184C236.799 14.512 235.671 13.552 234.735 12.88ZM234.087 1.552L236.895 2.32C236.175 3.304 235.479 4.192 234.927 4.816L232.743 4.096C233.223 3.376 233.799 2.32 234.087 1.552ZM221.871 1.672L224.415 2.488C222.951 6.424 220.599 10.6 218.103 13.264C217.863 12.616 217.119 11.128 216.663 10.432C218.727 8.32 220.695 5.008 221.871 1.672ZM219.495 8.368L222.183 5.68L222.207 5.704V24.16H219.495V8.368ZM242.583 3.208H262.239V5.656H242.583V3.208ZM243.687 6.88H261.303V9.184H243.687V6.88ZM241.695 10.504H263.007V12.952H241.695V10.504ZM250.839 1.624H253.767V12.568H250.839V1.624ZM250.863 11.416L253.359 12.592C250.791 15.352 246.543 17.776 242.631 19C242.199 18.304 241.383 17.248 240.783 16.648C244.575 15.664 248.751 13.6 250.863 11.416ZM255.015 11.872C256.263 16.648 258.927 20.128 263.871 21.544C263.223 22.12 262.407 23.32 261.999 24.112C256.623 22.24 253.959 18.256 252.399 12.376L255.015 11.872ZM260.559 13.312L262.935 15.112C261.135 16.408 258.975 17.728 257.319 18.544L255.495 17.008C257.103 16.072 259.263 14.536 260.559 13.312ZM243.327 21.448C246.231 20.944 250.647 20.032 254.751 19.144L255.015 21.736C251.247 22.6 247.167 23.488 244.191 24.136L243.327 21.448ZM246.615 16.576L248.511 14.68L249.495 14.944V21.856H246.615V16.576ZM276.543 3.04H287.175V5.704H276.543V3.04ZM276.543 9.136H284.775V11.728H276.543V9.136ZM275.079 3.04H277.863V9.88C277.863 14.032 277.383 20.272 274.407 24.136C273.951 23.632 272.751 22.72 272.127 22.432C274.839 18.856 275.079 13.624 275.079 9.856V3.04ZM279.495 11.032C280.767 15.928 283.455 20.032 287.871 21.832C287.223 22.408 286.359 23.512 285.951 24.256C281.247 21.952 278.607 17.416 277.071 11.584L279.495 11.032ZM284.247 9.136H284.751L285.231 9.04L287.031 9.592C285.879 16.96 282.711 21.616 277.983 24.16C277.599 23.488 276.831 22.432 276.231 21.904C280.359 19.984 283.335 15.448 284.247 9.64V9.136ZM265.431 6.568H274.023V9.256H265.431V6.568ZM268.623 1.624H271.335V24.16H268.623V1.624ZM268.527 8.416L270.183 9.016C269.463 12.856 267.975 17.512 266.175 19.984C265.911 19.192 265.263 18.016 264.831 17.32C266.463 15.232 267.903 11.488 268.527 8.416ZM271.239 10.432C271.839 11.104 274.023 14.128 274.479 14.824L272.871 17.032C272.247 15.568 270.687 12.88 269.943 11.68L271.239 10.432Z" fill="#4C4C4C"/>
<path d="M2.97121 11.6863L2.94477 11.7526L2.9407 11.6996L2.93664 11.6466L1.64758 11.6612L0.358532 11.6759L0.391683 9.08979L0.424835 6.50366L0.475792 5.15165L0.526749 3.79965L0.578131 2.34161L0.629513 0.883568L0.654487 0.465007L0.679462 0.0464456L0.702418 0.0232251L0.725392 0L2.57821 0.0842652L4.43104 0.16853L5.24381 0.248035L6.05657 0.32754L7.07908 0.462689L8.10161 0.597838L8.75706 0.701038L9.41253 0.804242L9.64979 0.859573L9.88709 0.914904L9.90286 1.26996L9.91863 1.62502L9.94047 1.64709L9.96232 1.66917L10.2172 1.66005L10.4722 1.65093L10.6502 1.72909L10.8283 1.80724L10.7559 1.80929L10.6835 1.81134L10.7175 2.01016L10.7515 2.20899L10.8805 3.0573L11.0095 3.90562L11.1399 4.88649L11.2702 5.86735L11.3508 6.84821L11.4315 7.82908L11.5114 9.57476L11.5913 11.3204L11.547 11.3652L11.5027 11.41L10.0119 11.4616L8.52111 11.5131L7.0791 11.5674L5.63708 11.6217L4.31743 11.6209L2.99778 11.62L2.97121 11.6863ZM8.23867 7.8014L8.32342 7.70237L8.35921 7.26207L8.395 6.82176L8.47049 6.07949L8.54596 5.33721L8.73097 4.01701L8.91598 2.69681L8.89294 2.6735L8.86988 2.65022L8.03998 2.76294L7.21004 2.87567L6.71504 2.95438L6.22001 3.0331L5.28036 3.11317L4.34068 3.19324L4.18491 3.27469L4.02913 3.35614L4.06294 3.44523L4.09673 3.53431L4.14443 3.77302L4.19211 4.01172L4.24861 5.83916L4.30511 7.6666L4.31555 7.67642L4.32599 7.68625L5.66313 7.71806L7.00025 7.74987L7.47219 7.78352L7.94412 7.81717L8.04899 7.85878L8.15387 7.9004L8.23867 7.8014Z" fill="#4C4C4C"/>
<path d="M20.2886 28.9787L15.6524 29L11.3263 28.96L7.00031 28.9199L3.50014 28.8783L0 28.8366L0.00145137 27.1076L0.00290274 25.3787L0.0538423 23.3109L0.104764 21.2431L0.157013 19.1223L0.209263 17.0015L0.267318 15.0133L0.32539 13.0251L0.359922 12.3503L0.394436 11.6755L1.66835 11.661L2.94226 11.6466L2.96338 11.7526L2.98448 11.8587L3.01357 12.7335L3.04267 13.6083L3.09409 15.3314L3.14551 17.0546L3.20192 19.3216L3.25833 21.5887L3.29891 23.4704L3.3395 25.352L3.36231 25.3751L3.38513 25.3982L7.52673 25.3445L11.6684 25.2909L18.5507 25.2844L25.433 25.278L25.4427 23.3401L25.4524 21.4023L25.4611 21.2294L25.4698 21.0565L25.5055 18.3133L25.5413 15.5701L25.6184 12.0973L25.6955 8.62454L25.7727 6.05308L25.8499 3.48163L25.8815 3.05003L25.9132 2.61842L25.555 2.58616L25.1968 2.55389L23.8597 2.49892L22.5226 2.44395L19.5074 2.28699L16.4923 2.13003L15.4436 2.07512L14.3948 2.02023L13.5296 1.97127L12.6644 1.9223L11.773 1.86448L10.8816 1.80666L10.668 1.72877L10.4545 1.65088L10.209 1.66026L9.96349 1.66965L9.94266 1.64777L9.92185 1.62592L9.90363 1.29891L9.88539 0.971896L9.91433 0.942631L9.94325 0.91337L11.4611 0.806055L12.979 0.698743L15.4436 0.56669L17.9081 0.434637L19.4812 0.354282L21.0543 0.273918L22.0244 0.222381L22.9945 0.17084L24.5938 0.117933L26.1931 0.0650271L27.3264 0.0366166L28.4598 0.0082016L28.4932 0.254474L28.5265 0.500751L28.5264 1.32841L28.5263 2.15607L28.6037 4.648L28.6811 7.13992L28.7349 9.10165L28.7887 11.0634L28.8446 14.059L28.9004 17.0546L28.9419 19.467L28.9835 21.8794L28.9917 25.4185L29 28.9575H26.9629H24.9259L20.2897 28.9788L20.2886 28.9787Z" fill="#4C4C4C"/>
<path d="M2.97121 11.6863L2.94477 11.7526L2.9407 11.6996L2.93664 11.6466L1.64758 11.6612L0.358532 11.6759L0.391683 9.08979L0.424835 6.50366L0.475792 5.15165L0.526749 3.79965L0.578131 2.34161L0.629513 0.883568L0.654487 0.465007L0.679462 0.0464456L0.702418 0.0232251L0.725392 0L2.57821 0.0842652L4.43104 0.16853L5.24381 0.248035L6.05657 0.32754L7.07908 0.462689L8.10161 0.597838L8.75706 0.701038L9.41253 0.804242L9.64979 0.859573L9.88709 0.914904L9.90286 1.26996L9.91863 1.62502L9.94047 1.64709L9.96232 1.66917L10.2172 1.66005L10.4722 1.65093L10.6502 1.72909L10.8283 1.80724L10.7559 1.80929L10.6835 1.81134L10.7175 2.01016L10.7515 2.20899L10.8805 3.0573L11.0095 3.90562L11.1399 4.88649L11.2702 5.86735L11.3508 6.84821L11.4315 7.82908L11.5114 9.57476L11.5913 11.3204L11.547 11.3652L11.5027 11.41L10.0119 11.4616L8.52111 11.5131L7.0791 11.5674L5.63708 11.6217L4.31743 11.6209L2.99778 11.62L2.97121 11.6863ZM8.23867 7.8014L8.32342 7.70237L8.35921 7.26207L8.395 6.82176L8.47049 6.07949L8.54596 5.33721L8.73097 4.01701L8.91598 2.69681L8.89294 2.6735L8.86988 2.65022L8.03998 2.76294L7.21004 2.87567L6.71504 2.95438L6.22001 3.0331L5.28036 3.11317L4.34068 3.19324L4.18491 3.27469L4.02913 3.35614L4.06294 3.44523L4.09673 3.53431L4.14443 3.77302L4.19211 4.01172L4.24861 5.83916L4.30511 7.6666L4.31555 7.67642L4.32599 7.68625L5.66313 7.71806L7.00025 7.74987L7.47219 7.78352L7.94412 7.81717L8.04899 7.85878L8.15387 7.9004L8.23867 7.8014Z" fill="#4C4C4C"/>
<path d="M20.2886 28.9787L15.6524 29L11.3263 28.96L7.00031 28.9199L3.50014 28.8783L0 28.8366L0.00145137 27.1076L0.00290274 25.3787L0.0538423 23.3109L0.104764 21.2431L0.157013 19.1223L0.209263 17.0015L0.267318 15.0133L0.32539 13.0251L0.359922 12.3503L0.394436 11.6755L1.66835 11.661L2.94226 11.6466L2.96338 11.7526L2.98448 11.8587L3.01357 12.7335L3.04267 13.6083L3.09409 15.3314L3.14551 17.0546L3.20192 19.3216L3.25833 21.5887L3.29891 23.4704L3.3395 25.352L3.36231 25.3751L3.38513 25.3982L7.52673 25.3445L11.6684 25.2909L18.5507 25.2844L25.433 25.278L25.4427 23.3401L25.4524 21.4023L25.4611 21.2294L25.4698 21.0565L25.5055 18.3133L25.5413 15.5701L25.6184 12.0973L25.6955 8.62454L25.7727 6.05308L25.8499 3.48163L25.8815 3.05003L25.9132 2.61842L25.555 2.58616L25.1968 2.55389L23.8597 2.49892L22.5226 2.44395L19.5074 2.28699L16.4923 2.13003L15.4436 2.07512L14.3948 2.02023L13.5296 1.97127L12.6644 1.9223L11.773 1.86448L10.8816 1.80666L10.668 1.72877L10.4545 1.65088L10.209 1.66026L9.96349 1.66965L9.94266 1.64777L9.92185 1.62592L9.90363 1.29891L9.88539 0.971896L9.91433 0.942631L9.94325 0.91337L11.4611 0.806055L12.979 0.698743L15.4436 0.56669L17.9081 0.434637L19.4812 0.354282L21.0543 0.273918L22.0244 0.222381L22.9945 0.17084L24.5938 0.117933L26.1931 0.0650271L27.3264 0.0366166L28.4598 0.0082016L28.4932 0.254474L28.5265 0.500751L28.5264 1.32841L28.5263 2.15607L28.6037 4.648L28.6811 7.13992L28.7349 9.10165L28.7887 11.0634L28.8446 14.059L28.9004 17.0546L28.9419 19.467L28.9835 21.8794L28.9917 25.4185L29 28.9575H26.9629H24.9259L20.2897 28.9788L20.2886 28.9787Z" fill="#4C4C4C"/>
</svg>
