<svg width="29" height="29" viewBox="0 0 29 29" fill="none" xmlns="http://www.w3.org/2000/svg">
<path d="M2.97121 11.6863L2.94477 11.7526L2.9407 11.6996L2.93664 11.6466L1.64758 11.6612L0.358532 11.6759L0.391683 9.08979L0.424835 6.50366L0.475792 5.15165L0.526749 3.79965L0.578131 2.34161L0.629513 0.883568L0.654487 0.465007L0.679462 0.0464456L0.702418 0.0232251L0.725392 0L2.57821 0.0842652L4.43104 0.16853L5.24381 0.248035L6.05657 0.32754L7.07908 0.462689L8.10161 0.597838L8.75706 0.701038L9.41253 0.804242L9.64979 0.859573L9.88709 0.914904L9.90286 1.26996L9.91863 1.62502L9.94047 1.64709L9.96232 1.66917L10.2172 1.66005L10.4722 1.65093L10.6502 1.72909L10.8283 1.80724L10.7559 1.80929L10.6835 1.81134L10.7175 2.01016L10.7515 2.20899L10.8805 3.0573L11.0095 3.90562L11.1399 4.88649L11.2702 5.86735L11.3508 6.84821L11.4315 7.82908L11.5114 9.57476L11.5913 11.3204L11.547 11.3652L11.5027 11.41L10.0119 11.4616L8.52111 11.5131L7.0791 11.5674L5.63708 11.6217L4.31743 11.6209L2.99778 11.62L2.97121 11.6863ZM8.23867 7.8014L8.32342 7.70237L8.35921 7.26207L8.395 6.82176L8.47049 6.07949L8.54596 5.33721L8.73097 4.01701L8.91598 2.69681L8.89294 2.6735L8.86988 2.65022L8.03998 2.76294L7.21004 2.87567L6.71504 2.95438L6.22001 3.0331L5.28036 3.11317L4.34068 3.19324L4.18491 3.27469L4.02913 3.35614L4.06294 3.44523L4.09673 3.53431L4.14443 3.77302L4.19211 4.01172L4.24861 5.83916L4.30511 7.6666L4.31555 7.67642L4.32599 7.68625L5.66313 7.71806L7.00025 7.74987L7.47219 7.78352L7.94412 7.81717L8.04899 7.85878L8.15387 7.9004L8.23867 7.8014Z" fill="#4C4C4C"/>
<path d="M20.2886 28.9787L15.6524 29L11.3263 28.96L7.00031 28.9199L3.50014 28.8783L0 28.8366L0.00145137 27.1076L0.00290274 25.3787L0.0538423 23.3109L0.104764 21.2431L0.157013 19.1223L0.209263 17.0015L0.267318 15.0133L0.32539 13.0251L0.359922 12.3503L0.394436 11.6755L1.66835 11.661L2.94226 11.6466L2.96338 11.7526L2.98448 11.8587L3.01357 12.7335L3.04267 13.6083L3.09409 15.3314L3.14551 17.0546L3.20192 19.3216L3.25833 21.5887L3.29891 23.4704L3.3395 25.352L3.36231 25.3751L3.38513 25.3982L7.52673 25.3445L11.6684 25.2909L18.5507 25.2844L25.433 25.278L25.4427 23.3401L25.4524 21.4023L25.4611 21.2294L25.4698 21.0565L25.5055 18.3133L25.5413 15.5701L25.6184 12.0973L25.6955 8.62454L25.7727 6.05308L25.8499 3.48163L25.8815 3.05003L25.9132 2.61842L25.555 2.58616L25.1968 2.55389L23.8597 2.49892L22.5226 2.44395L19.5074 2.28699L16.4923 2.13003L15.4436 2.07512L14.3948 2.02023L13.5296 1.97127L12.6644 1.9223L11.773 1.86448L10.8816 1.80666L10.668 1.72877L10.4545 1.65088L10.209 1.66026L9.96349 1.66965L9.94266 1.64777L9.92185 1.62592L9.90363 1.29891L9.88539 0.971896L9.91433 0.942631L9.94325 0.91337L11.4611 0.806055L12.979 0.698743L15.4436 0.56669L17.9081 0.434637L19.4812 0.354282L21.0543 0.273918L22.0244 0.222381L22.9945 0.17084L24.5938 0.117933L26.1931 0.0650271L27.3264 0.0366166L28.4598 0.0082016L28.4932 0.254474L28.5265 0.500751L28.5264 1.32841L28.5263 2.15607L28.6037 4.648L28.6811 7.13992L28.7349 9.10165L28.7887 11.0634L28.8446 14.059L28.9004 17.0546L28.9419 19.467L28.9835 21.8794L28.9917 25.4185L29 28.9575H26.9629H24.9259L20.2897 28.9788L20.2886 28.9787Z" fill="#4C4C4C"/>
<path d="M2.97121 11.6863L2.94477 11.7526L2.9407 11.6996L2.93664 11.6466L1.64758 11.6612L0.358532 11.6759L0.391683 9.08979L0.424835 6.50366L0.475792 5.15165L0.526749 3.79965L0.578131 2.34161L0.629513 0.883568L0.654487 0.465007L0.679462 0.0464456L0.702418 0.0232251L0.725392 0L2.57821 0.0842652L4.43104 0.16853L5.24381 0.248035L6.05657 0.32754L7.07908 0.462689L8.10161 0.597838L8.75706 0.701038L9.41253 0.804242L9.64979 0.859573L9.88709 0.914904L9.90286 1.26996L9.91863 1.62502L9.94047 1.64709L9.96232 1.66917L10.2172 1.66005L10.4722 1.65093L10.6502 1.72909L10.8283 1.80724L10.7559 1.80929L10.6835 1.81134L10.7175 2.01016L10.7515 2.20899L10.8805 3.0573L11.0095 3.90562L11.1399 4.88649L11.2702 5.86735L11.3508 6.84821L11.4315 7.82908L11.5114 9.57476L11.5913 11.3204L11.547 11.3652L11.5027 11.41L10.0119 11.4616L8.52111 11.5131L7.0791 11.5674L5.63708 11.6217L4.31743 11.6209L2.99778 11.62L2.97121 11.6863ZM8.23867 7.8014L8.32342 7.70237L8.35921 7.26207L8.395 6.82176L8.47049 6.07949L8.54596 5.33721L8.73097 4.01701L8.91598 2.69681L8.89294 2.6735L8.86988 2.65022L8.03998 2.76294L7.21004 2.87567L6.71504 2.95438L6.22001 3.0331L5.28036 3.11317L4.34068 3.19324L4.18491 3.27469L4.02913 3.35614L4.06294 3.44523L4.09673 3.53431L4.14443 3.77302L4.19211 4.01172L4.24861 5.83916L4.30511 7.6666L4.31555 7.67642L4.32599 7.68625L5.66313 7.71806L7.00025 7.74987L7.47219 7.78352L7.94412 7.81717L8.04899 7.85878L8.15387 7.9004L8.23867 7.8014Z" fill="#4C4C4C"/>
<path d="M20.2886 28.9787L15.6524 29L11.3263 28.96L7.00031 28.9199L3.50014 28.8783L0 28.8366L0.00145137 27.1076L0.00290274 25.3787L0.0538423 23.3109L0.104764 21.2431L0.157013 19.1223L0.209263 17.0015L0.267318 15.0133L0.32539 13.0251L0.359922 12.3503L0.394436 11.6755L1.66835 11.661L2.94226 11.6466L2.96338 11.7526L2.98448 11.8587L3.01357 12.7335L3.04267 13.6083L3.09409 15.3314L3.14551 17.0546L3.20192 19.3216L3.25833 21.5887L3.29891 23.4704L3.3395 25.352L3.36231 25.3751L3.38513 25.3982L7.52673 25.3445L11.6684 25.2909L18.5507 25.2844L25.433 25.278L25.4427 23.3401L25.4524 21.4023L25.4611 21.2294L25.4698 21.0565L25.5055 18.3133L25.5413 15.5701L25.6184 12.0973L25.6955 8.62454L25.7727 6.05308L25.8499 3.48163L25.8815 3.05003L25.9132 2.61842L25.555 2.58616L25.1968 2.55389L23.8597 2.49892L22.5226 2.44395L19.5074 2.28699L16.4923 2.13003L15.4436 2.07512L14.3948 2.02023L13.5296 1.97127L12.6644 1.9223L11.773 1.86448L10.8816 1.80666L10.668 1.72877L10.4545 1.65088L10.209 1.66026L9.96349 1.66965L9.94266 1.64777L9.92185 1.62592L9.90363 1.29891L9.88539 0.971896L9.91433 0.942631L9.94325 0.91337L11.4611 0.806055L12.979 0.698743L15.4436 0.56669L17.9081 0.434637L19.4812 0.354282L21.0543 0.273918L22.0244 0.222381L22.9945 0.17084L24.5938 0.117933L26.1931 0.0650271L27.3264 0.0366166L28.4598 0.0082016L28.4932 0.254474L28.5265 0.500751L28.5264 1.32841L28.5263 2.15607L28.6037 4.648L28.6811 7.13992L28.7349 9.10165L28.7887 11.0634L28.8446 14.059L28.9004 17.0546L28.9419 19.467L28.9835 21.8794L28.9917 25.4185L29 28.9575H26.9629H24.9259L20.2897 28.9788L20.2886 28.9787Z" fill="#4C4C4C"/>
</svg>
